<?xml version="1.0" standalone="no"?>
<!DOCTYPE svg PUBLIC "-//W3C//DTD SVG 20010904//EN"
 "http://www.w3.org/TR/2001/REC-SVG-20010904/DTD/svg10.dtd">
<svg version="1.0" xmlns="http://www.w3.org/2000/svg"
 width="500.000000pt" height="500.000000pt" viewBox="0 0 500.000000 500.000000"
 preserveAspectRatio="xMidYMid meet">
<metadata>
Created by potrace 1.11, written by Peter Selinger 2001-2013
</metadata>
<g transform="translate(0.000000,500.000000) scale(0.100000,-0.100000)"
fill="#000000" stroke="none">
<path d="M3534 4174 c-25 -11 -54 -22 -74 -29 -3 -1 -12 -5 -20 -8 -8 -3 -125
-47 -260 -97 -135 -50 -261 -97 -280 -105 -19 -7 -134 -50 -255 -95 -121 -44
-229 -85 -240 -90 -11 -4 -103 -39 -205 -76 -102 -37 -198 -72 -215 -79 -29
-12 -173 -66 -207 -78 -9 -3 -15 -14 -14 -24 2 -10 1 -22 -2 -27 -3 -5 -6 -32
-7 -60 -2 -28 -6 -69 -9 -91 -6 -49 -14 -121 -21 -195 -3 -30 -7 -71 -10 -90
-2 -19 -7 -64 -11 -100 -3 -36 -8 -85 -10 -110 -3 -25 -7 -67 -9 -95 -3 -27
-7 -68 -9 -90 -3 -22 -8 -65 -11 -95 -3 -30 -8 -68 -10 -85 -3 -16 -7 -57 -10
-90 -16 -183 -17 -186 -62 -208 -21 -10 -47 -23 -58 -30 -93 -55 -115 -67
-123 -67 -5 0 -16 21 -25 48 -34 105 -129 378 -137 397 -4 11 -22 63 -40 115
-17 52 -34 102 -37 110 -3 8 -7 17 -8 20 -22 74 -35 112 -44 128 -5 10 -12 30
-15 43 -3 13 -19 62 -36 109 -27 70 -40 110 -55 160 -1 3 -5 14 -9 25 -4 11
-13 34 -19 50 -16 45 -20 48 -92 59 -11 2 -52 9 -92 17 l-71 13 14 28 c8 15
14 31 14 37 0 5 5 22 12 38 6 15 12 33 14 38 1 6 16 45 32 88 17 42 27 77 22
77 -5 0 -10 -4 -12 -9 -2 -4 -21 -30 -43 -56 -79 -94 -337 -401 -363 -430 -15
-17 -39 -46 -53 -65 -15 -19 -36 -45 -48 -57 -12 -12 -21 -26 -21 -31 0 -6
102 -36 198 -58 16 -3 59 13 132 51 60 30 111 55 113 55 2 0 2 -125 0 -277
-11 -861 -11 -866 5 -913 8 -25 18 -49 22 -55 3 -5 15 -32 25 -60 9 -27 24
-63 31 -80 7 -16 29 -68 47 -115 l34 -84 67 -22 c37 -12 69 -22 72 -22 2 -1
46 -14 97 -30 50 -17 126 -40 167 -52 97 -30 100 -32 90 -77 -5 -20 -8 -39 -8
-42 0 -3 -1 -8 -2 -11 -1 -3 -4 -16 -5 -30 -1 -14 -5 -38 -8 -55 -3 -16 -9
-50 -12 -75 -6 -38 -10 -46 -28 -47 -32 -1 -207 -14 -242 -18 -16 -1 -50 -3
-74 -4 -50 -1 -47 -7 19 -42 25 -13 47 -26 50 -29 3 -3 23 -14 45 -26 88 -46
161 -87 169 -95 6 -5 106 -9 222 -9 l213 0 55 72 c31 40 59 78 63 83 5 6 27
36 50 67 23 31 53 59 65 63 13 4 50 17 83 30 33 13 101 38 150 56 50 18 95 36
101 40 6 5 19 10 30 12 10 2 28 8 39 12 241 95 295 111 266 79 -5 -5 -39 -67
-76 -139 -37 -71 -71 -134 -76 -139 -11 -12 -23 -14 -144 -21 -55 -3 -122 -7
-150 -9 -27 -2 -74 -5 -102 -7 -29 -1 -53 -4 -53 -5 0 -1 73 -42 163 -91 l162
-88 255 -2 256 -2 43 82 c84 159 124 232 134 245 5 6 6 12 3 12 -4 0 1 12 12
27 10 16 32 54 47 86 16 31 32 58 35 58 3 1 186 2 408 3 l402 1 33 36 c27 31
61 68 192 213 11 13 56 63 101 112 44 49 130 143 189 209 60 66 125 138 144
159 47 51 62 68 83 92 17 20 17 23 -3 85 -11 35 -25 73 -29 84 -5 11 -39 105
-75 209 -36 105 -67 191 -68 192 -1 2 -54 17 -117 33 -63 17 -164 44 -225 61
-60 16 -119 31 -130 32 -11 2 -26 7 -32 11 -31 19 -8 -12 40 -55 28 -26 75
-68 103 -95 28 -26 99 -92 157 -147 82 -76 104 -101 94 -110 -7 -6 -77 -63
-157 -126 -80 -63 -147 -117 -150 -120 -3 -3 -70 -57 -150 -120 -80 -63 -147
-117 -150 -120 -3 -3 -16 -12 -29 -21 -23 -14 -29 -14 -75 4 -46 17 -258 91
-598 209 -128 45 -120 36 -133 133 -3 23 -7 50 -9 60 -2 11 -7 45 -11 75 -4
30 -9 64 -12 75 -2 11 -6 40 -8 65 -2 25 -7 56 -9 70 -3 13 -7 39 -8 57 -1 18
-5 33 -8 33 -3 0 -5 14 -4 31 0 18 -3 53 -8 78 -5 25 -11 66 -14 91 -2 25 -7
52 -9 60 -2 8 -6 42 -10 75 l-6 60 48 25 c47 25 162 87 298 163 39 21 83 44
98 50 34 14 35 20 42 177 11 267 17 366 20 386 2 11 23 42 48 67 25 26 69 75
98 109 30 34 65 72 78 84 24 22 24 23 4 21 -11 0 -34 -7 -49 -13z"/>
</g>
</svg>
