<?xml version="1.0" encoding="utf-8"?>
<!-- Generator: Adobe Illustrator 17.0.0, SVG Export Plug-In . SVG Version: 6.00 Build 0)  -->
<!DOCTYPE svg PUBLIC "-//W3C//DTD SVG 1.1//EN" "http://www.w3.org/Graphics/SVG/1.1/DTD/svg11.dtd">
<svg version="1.1" id="Layer_1" xmlns="http://www.w3.org/2000/svg" xmlns:xlink="http://www.w3.org/1999/xlink" x="0px" y="0px"
	 width="404.399px" height="370.448px" viewBox="0 0 404.399 370.448" enable-background="new 0 0 404.399 370.448"
	 xml:space="preserve">
<g>
	<polygon fill="#CFF09E" points="101.927,262.349 97.294,290.885 93.985,311.479 132.373,311.479 150.905,286.583 118.297,223.449 	
		"/>
	<polygon fill="#79BD9A" points="122.958,183.587 101.927,195.715 56.258,248.226 101.927,262.568 118.297,223.628 	"/>
	<polygon fill="#CFF09E" points="121.783,194.839 118.297,223.08 215.158,261.687 135.594,62.626 	"/>
	<polygon fill="#79BD9A" points="150.905,285.845 215.158,261.687 118.297,223.08 	"/>
	<polygon fill="#A8DBA8" points="62.298,81.06 40.539,77.151 41.697,103.501 40.374,208.738 56.258,248.226 101.927,195.715 	"/>
	<polygon fill="#CFF09E" points="0,108.631 20.849,114.091 41.697,103.501 40.539,77.151 	"/>
	<polygon fill="#A8DBA8" points="62.215,292.794 93.985,310.653 97.294,290.147 	"/>
	<polygon fill="#79BD9A" points="51.493,47.673 0,108.631 40.539,77.151 	"/>
	<polygon fill="#79BD9A" points="303.717,0 135.594,62.626 280.5,25.651 	"/>
	<polygon fill="#A8DBA8" points="280.5,25.651 135.594,62.626 278.053,76.32 	"/>
	<polygon fill="#CFF09E" points="377.924,159.76 404.399,186.234 386.807,135.946 338.38,123.107 	"/>
	<polygon fill="#A8DBA8" points="317.033,208.33 334.903,262.839 404.399,186.234 377.924,159.76 	"/>
	<polygon fill="#79BD9A" points="234.218,100.064 135.594,62.626 246.213,183.587 	"/>
	<polygon fill="#CFF09E" points="278.053,76.32 135.594,62.626 234.218,100.064 	"/>
	<polygon fill="#A8DBA8" points="135.594,62.626 215.158,261.687 246.213,183.587 	"/>
	<polygon fill="#79BD9A" points="246.213,183.605 232.265,218.702 246.935,241.234 260.774,262.479 334.903,262.479 317.033,208.15 
			"/>
	<line fill="none" x1="257.465" y1="280.881" x2="268.717" y2="218.666"/>
	<path fill="#CFF09E" d="M260.774,263.403l-24.767,47.076h-45.391l24.542-48.205l17.106-43.007L260.774,263.403z M232.265,218.666
		l-17.106,43.021 M215.158,261.687 M260.774,262.839"/>
	<polygon fill="#A8DBA8" points="158.764,292.794 190.617,309.734 200.666,290.147 	"/>
</g>
<g>
	<path fill="#0B486B" d="M70.035,368.399v-8.539h2.323v6.831c3.074,0.956,7.446,1.571,10.999,1.571
		c8.129,0,12.023-3.348,12.023-8.402c0-12.639-24.456-7.993-24.456-22.339c0-5.602,3.757-10.315,13.594-10.315
		c3.962,0,8.266,0.752,11.682,1.776v8.471h-2.391v-6.763c-2.459-0.684-5.875-1.229-9.086-1.229c-8.744,0-11.408,3.962-11.408,7.992
		c0,12.023,24.456,7.72,24.456,22.407c0,6.763-5.26,10.588-14.414,10.588C79.053,370.448,73.792,369.628,70.035,368.399z"/>
	<path fill="#0B486B" d="M109.387,348.792c0-12.159,7.583-21.587,21.997-21.587c5.192,0,10.042,1.229,13.731,3.006v9.018h-2.391
		v-7.72c-3.006-1.298-7.31-2.117-11.204-2.117c-11.135,0-19.606,6.694-19.606,19.469c0,13.526,9.564,19.401,19.333,19.401
		c5.26,0,10.315-1.708,14.072-3.825v2.322c-3.416,1.981-8.471,3.688-14.141,3.688C119.156,370.448,109.387,362.592,109.387,348.792z
		"/>
	<path fill="#0B486B" d="M154.41,367.442h6.216l15.029-37.23h-6.49v-2.186h10.315l15.849,39.416h6.217v2.187h-16.19v-2.187h7.446
		l-4.987-12.296h-19.743l-4.918,12.296h7.446v2.187h-16.19V367.442z M186.927,352.891l-8.949-22.475l-9.017,22.475H186.927z"/>
	<path fill="#0B486B" d="M211.934,367.442h7.037v-37.23h-7.037v-2.186h17.147v2.186h-7.651v37.23h21.177v-8.812h2.323v10.998
		h-32.996V367.442z"/>
	<path fill="#0B486B" d="M256.751,367.442h7.037v-37.23h-7.037v-2.186h32.586v10.725h-2.322v-8.539h-20.768v17.352h20.152v2.187
		h-20.152v17.692h20.836v-8.471h2.322v10.657h-32.654V367.442z"/>
	<path fill="#0B486B" d="M306.898,368.399v-8.539h2.322v6.831c3.074,0.956,7.446,1.571,10.998,1.571
		c8.13,0,12.023-3.348,12.023-8.402c0-12.639-24.456-7.993-24.456-22.339c0-5.602,3.757-10.315,13.595-10.315
		c3.962,0,8.266,0.752,11.682,1.776v8.471h-2.392v-6.763c-2.459-0.684-5.875-1.229-9.085-1.229c-8.744,0-11.409,3.962-11.409,7.992
		c0,12.023,24.457,7.72,24.457,22.407c0,6.763-5.261,10.588-14.415,10.588C315.915,370.448,310.655,369.628,306.898,368.399z"/>
</g>
</svg>
