<?xml version="1.0" encoding="utf-8"?>
<!-- Generator: Adobe Illustrator 17.0.0, SVG Export Plug-In . SVG Version: 6.00 Build 0)  -->
<!DOCTYPE svg PUBLIC "-//W3C//DTD SVG 1.1//EN" "http://www.w3.org/Graphics/SVG/1.1/DTD/svg11.dtd">
<svg version="1.1" id="Layer_1" xmlns="http://www.w3.org/2000/svg" xmlns:xlink="http://www.w3.org/1999/xlink" x="0px" y="0px"
	 width="276.084px" height="78.617px" viewBox="0 0 276.084 78.617" enable-background="new 0 0 276.084 78.617"
	 xml:space="preserve">
<g>
	<polygon fill="#CFF09E" points="25.728,66.222 24.559,73.422 23.723,78.617 33.413,78.617 38.091,72.336 29.86,56.401 	"/>
	<polygon fill="#79BD9A" points="31.037,46.341 25.728,49.402 14.201,62.657 25.728,66.277 29.86,56.448 	"/>
	<polygon fill="#CFF09E" points="30.74,49.181 29.86,56.309 54.31,66.055 34.227,15.808 	"/>
	<polygon fill="#79BD9A" points="38.091,72.152 54.31,66.055 29.86,56.309 	"/>
	<polygon fill="#A8DBA8" points="15.725,20.461 10.233,19.474 10.525,26.126 10.191,52.689 14.201,62.657 25.728,49.402 	"/>
	<polygon fill="#CFF09E" points="0,27.42 5.263,28.799 10.525,26.126 10.233,19.474 	"/>
	<polygon fill="#A8DBA8" points="15.704,73.907 23.723,78.415 24.559,73.238 	"/>
	<polygon fill="#79BD9A" points="12.998,12.034 0,27.42 10.233,19.474 	"/>
	<polygon fill="#79BD9A" points="76.664,0 34.227,15.808 70.803,6.475 	"/>
	<polygon fill="#A8DBA8" points="70.803,6.475 34.227,15.808 70.186,19.265 	"/>
	<polygon fill="#CFF09E" points="95.395,40.326 102.078,47.009 97.637,34.315 85.413,31.074 	"/>
	<polygon fill="#A8DBA8" points="80.025,52.586 84.536,66.345 102.078,47.009 95.395,40.326 	"/>
	<polygon fill="#79BD9A" points="59.121,25.258 34.227,15.808 62.149,46.341 	"/>
	<polygon fill="#CFF09E" points="70.186,19.265 34.227,15.808 59.121,25.258 	"/>
	<polygon fill="#A8DBA8" points="34.227,15.808 54.31,66.055 62.149,46.341 	"/>
	<polygon fill="#79BD9A" points="62.149,46.345 58.628,55.205 62.331,61.073 65.824,66.617 84.536,66.617 80.025,52.722 	"/>
	<line fill="none" x1="64.989" y1="70.899" x2="67.829" y2="55.195"/>
	<path fill="#CFF09E" d="M65.824,66.611l-6.252,12.006H48.115l6.195-12.291l4.318-10.856L65.824,66.611z M58.628,55.195
		L54.31,66.055 M54.31,66.055 M65.824,66.345"/>
	<polygon fill="#A8DBA8" points="40.075,73.907 48.115,78.183 50.652,73.238 	"/>
</g>
<g>
	<path fill="#FFFFFF" d="M114.344,51.169v-5.218h1.42v4.175c1.879,0.585,4.551,0.961,6.722,0.961c4.969,0,7.349-2.046,7.349-5.136
		c0-7.725-14.948-4.886-14.948-13.654c0-3.423,2.297-6.305,8.309-6.305c2.422,0,5.052,0.459,7.14,1.086v5.177h-1.462v-4.133
		c-1.503-0.417-3.591-0.752-5.553-0.752c-5.344,0-6.973,2.422-6.973,4.885c0,7.349,14.948,4.718,14.948,13.696
		c0,4.133-3.215,6.472-8.81,6.472C119.856,52.423,116.641,51.922,114.344,51.169z"/>
	<path fill="#FFFFFF" d="M138.4,39.186c0-7.432,4.635-13.194,13.445-13.194c3.173,0,6.138,0.752,8.392,1.837v5.511h-1.462v-4.718
		c-1.837-0.794-4.467-1.295-6.847-1.295c-6.806,0-11.983,4.092-11.983,11.9c0,8.268,5.846,11.859,11.816,11.859
		c3.215,0,6.305-1.045,8.601-2.338v1.42c-2.087,1.21-5.177,2.255-8.643,2.255C144.37,52.423,138.4,47.621,138.4,39.186z"/>
	<path fill="#FFFFFF" d="M165.921,50.586h3.8l9.186-22.756h-3.966v-1.336h6.304l9.687,24.093h3.8v1.336h-9.896v-1.336h4.551
		l-3.048-7.516h-12.066l-3.007,7.516h4.551v1.336h-9.896V50.586z M185.796,41.691l-5.47-13.737l-5.511,13.737H185.796z"/>
	<path fill="#FFFFFF" d="M201.084,50.586h4.301V27.829h-4.301v-1.336h10.48v1.336h-4.676v22.756h12.944v-5.387h1.42v6.723h-20.167
		V50.586z"/>
	<path fill="#FFFFFF" d="M228.478,50.586h4.301V27.829h-4.301v-1.336h19.916v6.556h-1.42v-5.219h-12.693v10.606H246.6v1.336h-12.318
		v10.815h12.735v-5.178h1.42v6.514h-19.959V50.586z"/>
	<path fill="#FFFFFF" d="M259.132,51.169v-5.218h1.42v4.175c1.879,0.585,4.551,0.961,6.722,0.961c4.968,0,7.348-2.046,7.348-5.136
		c0-7.725-14.947-4.886-14.947-13.654c0-3.423,2.296-6.305,8.309-6.305c2.421,0,5.052,0.459,7.139,1.086v5.177h-1.461v-4.133
		c-1.504-0.417-3.591-0.752-5.553-0.752c-5.344,0-6.973,2.422-6.973,4.885c0,7.349,14.948,4.718,14.948,13.696
		c0,4.133-3.216,6.472-8.81,6.472C264.643,52.423,261.428,51.922,259.132,51.169z"/>
</g>
</svg>
